<?xml version="1.0" encoding="UTF-8"?>
<!DOCTYPE svg PUBLIC "-//W3C//DTD SVG 1.1//EN" "http://www.w3.org/Graphics/SVG/1.1/DTD/svg11.dtd">
<svg xmlns="http://www.w3.org/2000/svg" version="1.1" width="512px" height="512px" style="shape-rendering:geometricPrecision; text-rendering:geometricPrecision; image-rendering:optimizeQuality; fill-rule:evenodd; clip-rule:evenodd" xmlns:xlink="http://www.w3.org/1999/xlink">
<g><path style="opacity:0.974" fill="#000000" d="M 210.5,-0.5 C 240.5,-0.5 270.5,-0.5 300.5,-0.5C 302.134,0.971672 303.634,2.63834 305,4.5C 305.5,16.1619 305.667,27.8286 305.5,39.5C 359.168,39.3333 412.834,39.5 466.5,40C 468.333,41.1667 469.833,42.6667 471,44.5C 472.662,197.444 472.995,350.444 472,503.5C 470.896,506.721 469.063,509.388 466.5,511.5C 325.833,511.5 185.167,511.5 44.5,511.5C 41.9374,509.388 40.104,506.721 39,503.5C 38.0045,350.444 38.3378,197.444 40,44.5C 41.1667,42.6667 42.6667,41.1667 44.5,40C 98.1656,39.5 151.832,39.3333 205.5,39.5C 205.333,27.8286 205.5,16.1619 206,4.5C 207.366,2.63834 208.866,0.971672 210.5,-0.5 Z M 225.5,19.5 C 232.167,19.5 238.833,19.5 245.5,19.5C 245.5,26.1667 245.5,32.8333 245.5,39.5C 238.833,39.5 232.167,39.5 225.5,39.5C 225.5,32.8333 225.5,26.1667 225.5,19.5 Z M 265.5,19.5 C 272.167,19.5 278.833,19.5 285.5,19.5C 285.5,26.1667 285.5,32.8333 285.5,39.5C 278.833,39.5 272.167,39.5 265.5,39.5C 265.5,32.8333 265.5,26.1667 265.5,19.5 Z M 59.5,59.5 C 190.167,59.5 320.833,59.5 451.5,59.5C 451.5,203.5 451.5,347.5 451.5,491.5C 441.833,491.5 432.167,491.5 422.5,491.5C 422.995,359.11 422.495,226.777 421,94.5C 419.833,92.6667 418.333,91.1667 416.5,90C 309.167,89.3333 201.833,89.3333 94.5,90C 92.6667,91.1667 91.1667,92.6667 90,94.5C 88.5052,226.777 88.0052,359.11 88.5,491.5C 78.8333,491.5 69.1667,491.5 59.5,491.5C 59.5,347.5 59.5,203.5 59.5,59.5 Z M 109.5,109.5 C 154.833,109.5 200.167,109.5 245.5,109.5C 245.5,236.833 245.5,364.167 245.5,491.5C 200.167,491.5 154.833,491.5 109.5,491.5C 109.5,378.5 109.5,265.5 109.5,152.5C 124.17,152.667 138.837,152.5 153.5,152C 160.975,147.845 162.475,142.012 158,134.5C 156.352,133.283 154.519,132.45 152.5,132C 138.171,131.5 123.837,131.333 109.5,131.5C 109.5,124.167 109.5,116.833 109.5,109.5 Z M 265.5,109.5 C 310.833,109.5 356.167,109.5 401.5,109.5C 401.5,217.167 401.5,324.833 401.5,432.5C 386.83,432.333 372.163,432.5 357.5,433C 350.025,437.155 348.525,442.988 353,450.5C 354.419,451.46 355.919,452.293 357.5,453C 372.163,453.5 386.83,453.667 401.5,453.5C 401.5,466.167 401.5,478.833 401.5,491.5C 356.167,491.5 310.833,491.5 265.5,491.5C 265.5,364.167 265.5,236.833 265.5,109.5 Z"/></g>
<g><path style="opacity:0.891" fill="#000000" d="M 176.5,131.5 C 186.656,131.49 190.822,136.49 189,146.5C 185.153,152.388 179.987,153.888 173.5,151C 166.305,143.153 167.305,136.653 176.5,131.5 Z"/></g>
<g><path style="opacity:0.886" fill="#000000" d="M 328.5,432.5 C 337.832,432 342.332,436.333 342,445.5C 338.225,453.535 332.392,455.368 324.5,451C 319.511,443.306 320.844,437.139 328.5,432.5 Z"/></g>
</svg>
