<?xml version="1.0" encoding="UTF-8"?>
<!DOCTYPE svg PUBLIC "-//W3C//DTD SVG 1.1//EN" "http://www.w3.org/Graphics/SVG/1.1/DTD/svg11.dtd">
<svg xmlns="http://www.w3.org/2000/svg" version="1.1" width="512px" height="512px" style="shape-rendering:geometricPrecision; text-rendering:geometricPrecision; image-rendering:optimizeQuality; fill-rule:evenodd; clip-rule:evenodd" xmlns:xlink="http://www.w3.org/1999/xlink">
<g><path style="opacity:0.965" fill="#8800ff" d="M 106.5,31.5 C 106.5,36.8333 106.5,42.1667 106.5,47.5C 92.788,47.1155 79.1213,47.6155 65.5,49C 60.663,50.2472 56.663,52.7472 53.5,56.5C 52.8333,49.8333 52.1667,43.1667 51.5,36.5C 54.8597,34.4945 58.5263,32.9945 62.5,32C 77.1629,31.5001 91.8295,31.3334 106.5,31.5 Z"/></g>
<g><path style="opacity:1" fill="#9600ff" d="M 106.5,31.5 C 126.5,31.5 146.5,31.5 166.5,31.5C 166.5,36.8333 166.5,42.1667 166.5,47.5C 146.5,47.5 126.5,47.5 106.5,47.5C 106.5,42.1667 106.5,36.8333 106.5,31.5 Z"/></g>
<g><path style="opacity:1" fill="#a300ff" d="M 166.5,31.5 C 184.833,31.5 203.167,31.5 221.5,31.5C 221.5,36.8333 221.5,42.1667 221.5,47.5C 203.167,47.5 184.833,47.5 166.5,47.5C 166.5,42.1667 166.5,36.8333 166.5,31.5 Z"/></g>
<g><path style="opacity:1" fill="#af00ff" d="M 221.5,31.5 C 241.167,31.5 260.833,31.5 280.5,31.5C 280.5,36.8333 280.5,42.1667 280.5,47.5C 260.833,47.5 241.167,47.5 221.5,47.5C 221.5,42.1667 221.5,36.8333 221.5,31.5 Z"/></g>
<g><path style="opacity:1" fill="#bc00ff" d="M 280.5,31.5 C 298.833,31.5 317.167,31.5 335.5,31.5C 335.5,36.8333 335.5,42.1667 335.5,47.5C 317.167,47.5 298.833,47.5 280.5,47.5C 280.5,42.1667 280.5,36.8333 280.5,31.5 Z"/></g>
<g><path style="opacity:1" fill="#c800ff" d="M 335.5,31.5 C 355.167,31.5 374.833,31.5 394.5,31.5C 394.5,36.8333 394.5,42.1667 394.5,47.5C 374.833,47.5 355.167,47.5 335.5,47.5C 335.5,42.1667 335.5,36.8333 335.5,31.5 Z"/></g>
<g><path style="opacity:0.981" fill="#d500ff" d="M 394.5,31.5 C 412.91,31.1804 431.243,31.5138 449.5,32.5C 449.5,38.5 449.5,44.5 449.5,50.5C 446.338,49.1366 443.004,48.3033 439.5,48C 424.504,47.5001 409.504,47.3334 394.5,47.5C 394.5,42.1667 394.5,36.8333 394.5,31.5 Z"/></g>
<g><path style="opacity:0.991" fill="#de00ff" d="M 449.5,32.5 C 465.184,36.6847 475.018,46.6847 479,62.5C 479.667,191.167 479.667,319.833 479,448.5C 475.018,464.315 465.184,474.315 449.5,478.5C 449.211,472.409 449.545,466.409 450.5,460.5C 458.234,455.71 462.4,448.71 463,439.5C 463.667,316.833 463.667,194.167 463,71.5C 462.515,61.8521 458.015,54.8521 449.5,50.5C 449.5,44.5 449.5,38.5 449.5,32.5 Z"/></g>
<g><path style="opacity:0.993" fill="#8000ff" d="M 51.5,36.5 C 52.1667,43.1667 52.8333,49.8333 53.5,56.5C 50.1962,60.9066 48.3629,65.9066 48,71.5C 47.3333,194.167 47.3333,316.833 48,439.5C 48.4059,444.55 49.9059,449.217 52.5,453.5C 52.8245,460.687 52.4912,467.687 51.5,474.5C 41.3838,468.624 34.8838,459.957 32,448.5C 31.3333,319.833 31.3333,191.167 32,62.5C 34.8838,51.0425 41.3838,42.3759 51.5,36.5 Z"/></g>
<g><path style="opacity:0.999" fill="#8800ff" d="M 106.5,63.5 C 106.5,68.8333 106.5,74.1667 106.5,79.5C 97.5,79.5 88.5,79.5 79.5,79.5C 79.5,196.833 79.5,314.167 79.5,431.5C 88.5,431.5 97.5,431.5 106.5,431.5C 106.5,436.833 106.5,442.167 106.5,447.5C 93.4957,447.667 80.4957,447.5 67.5,447C 65.6667,446.5 64.5,445.333 64,443.5C 63.3333,318.167 63.3333,192.833 64,67.5C 64.5,65.6667 65.6667,64.5 67.5,64C 80.4957,63.5001 93.4957,63.3334 106.5,63.5 Z"/></g>
<g><path style="opacity:1" fill="#9600ff" d="M 106.5,63.5 C 126.5,63.5 146.5,63.5 166.5,63.5C 166.5,68.8333 166.5,74.1667 166.5,79.5C 146.5,79.5 126.5,79.5 106.5,79.5C 106.5,74.1667 106.5,68.8333 106.5,63.5 Z"/></g>
<g><path style="opacity:1" fill="#a300ff" d="M 166.5,63.5 C 184.833,63.5 203.167,63.5 221.5,63.5C 221.5,68.8333 221.5,74.1667 221.5,79.5C 203.167,79.5 184.833,79.5 166.5,79.5C 166.5,74.1667 166.5,68.8333 166.5,63.5 Z"/></g>
<g><path style="opacity:1" fill="#af00ff" d="M 221.5,63.5 C 241.167,63.5 260.833,63.5 280.5,63.5C 280.5,68.8333 280.5,74.1667 280.5,79.5C 260.833,79.5 241.167,79.5 221.5,79.5C 221.5,74.1667 221.5,68.8333 221.5,63.5 Z"/></g>
<g><path style="opacity:1" fill="#bc00ff" d="M 280.5,63.5 C 298.833,63.5 317.167,63.5 335.5,63.5C 335.5,68.8333 335.5,74.1667 335.5,79.5C 317.167,79.5 298.833,79.5 280.5,79.5C 280.5,74.1667 280.5,68.8333 280.5,63.5 Z"/></g>
<g><path style="opacity:1" fill="#c800ff" d="M 335.5,63.5 C 355.167,63.5 374.833,63.5 394.5,63.5C 394.5,68.8333 394.5,74.1667 394.5,79.5C 374.833,79.5 355.167,79.5 335.5,79.5C 335.5,74.1667 335.5,68.8333 335.5,63.5 Z"/></g>
<g><path style="opacity:0.999" fill="#d700ff" d="M 394.5,63.5 C 410.837,63.3334 427.17,63.5001 443.5,64C 445.333,64.5 446.5,65.6667 447,67.5C 447.667,192.833 447.667,318.167 447,443.5C 446.5,445.333 445.333,446.5 443.5,447C 427.17,447.5 410.837,447.667 394.5,447.5C 394.5,442.167 394.5,436.833 394.5,431.5C 406.833,431.5 419.167,431.5 431.5,431.5C 431.5,314.167 431.5,196.833 431.5,79.5C 419.167,79.5 406.833,79.5 394.5,79.5C 394.5,74.1667 394.5,68.8333 394.5,63.5 Z"/></g>
<g><path style="opacity:0.952" fill="#b200ff" d="M 281.5,118.5 C 280.833,127.833 280.167,137.167 279.5,146.5C 273.053,137.115 266.72,127.615 260.5,118C 256.332,115.697 252.665,116.197 249.5,119.5C 248.51,113.355 248.177,107.022 248.5,100.5C 258.971,97.3765 267.805,100.043 275,108.5C 276.996,111.986 279.163,115.319 281.5,118.5 Z"/></g>
<g><path style="opacity:0.934" fill="#ab00ff" d="M 248.5,100.5 C 248.177,107.022 248.51,113.355 249.5,119.5C 240.401,133.377 231.068,147.044 221.5,160.5C 221.5,150.833 221.5,141.167 221.5,131.5C 226.083,123.735 230.916,116.068 236,108.5C 239.337,104.422 243.503,101.755 248.5,100.5 Z"/></g>
<g><path style="opacity:0.95" fill="#b800ff" d="M 281.5,118.5 C 290.749,131.995 299.749,145.662 308.5,159.5C 308.5,169.5 308.5,179.5 308.5,189.5C 298.599,175.376 288.932,161.043 279.5,146.5C 280.167,137.167 280.833,127.833 281.5,118.5 Z"/></g>
<g><path style="opacity:0.962" fill="#a500ff" d="M 221.5,131.5 C 221.5,141.167 221.5,150.833 221.5,160.5C 213.253,174.085 204.587,187.419 195.5,200.5C 193.845,192.048 192.845,183.381 192.5,174.5C 201.808,159.871 211.475,145.537 221.5,131.5 Z"/></g>
<g><path style="opacity:0.94" fill="#bf00ff" d="M 308.5,159.5 C 319.47,175.322 330.304,191.322 341,207.5C 347.357,220.742 344.857,231.909 333.5,241C 331.283,242.275 328.949,243.275 326.5,244C 320.509,244.499 314.509,244.666 308.5,244.5C 308.5,239.167 308.5,233.833 308.5,228.5C 304.958,228.813 301.625,228.479 298.5,227.5C 306.84,227.666 315.173,227.5 323.5,227C 328.124,223.336 328.624,219.169 325,214.5C 319.278,206.284 313.778,197.951 308.5,189.5C 308.5,179.5 308.5,169.5 308.5,159.5 Z"/></g>
<g><path style="opacity:0.941" fill="#9f00ff" d="M 192.5,174.5 C 192.845,183.381 193.845,192.048 195.5,200.5C 190.993,206.845 186.993,213.512 183.5,220.5C 183.94,223.214 185.274,225.38 187.5,227C 191.152,227.499 194.818,227.665 198.5,227.5C 197.081,228.451 195.415,228.784 193.5,228.5C 193.5,233.833 193.5,239.167 193.5,244.5C 176.959,244.958 167.959,236.958 166.5,220.5C 166.575,215.865 167.742,211.531 170,207.5C 177.523,196.434 185.023,185.434 192.5,174.5 Z"/></g>
<g><path style="opacity:0.922" fill="#b000ff" d="M 236.5,189.5 C 249.171,189.333 261.838,189.5 274.5,190C 278.861,192.226 280.361,195.726 279,200.5C 277.833,203 276,204.833 273.5,206C 261.5,206.667 249.5,206.667 237.5,206C 231.456,203.068 229.956,198.568 233,192.5C 234.145,191.364 235.312,190.364 236.5,189.5 Z"/></g>
<g><path style="opacity:0.962" fill="#a500ff" d="M 198.5,227.5 C 203.167,227.5 207.833,227.5 212.5,227.5C 215.287,228.477 218.287,228.81 221.5,228.5C 221.5,233.833 221.5,239.167 221.5,244.5C 212.167,244.5 202.833,244.5 193.5,244.5C 193.5,239.167 193.5,233.833 193.5,228.5C 195.415,228.784 197.081,228.451 198.5,227.5 Z"/></g>
<g><path style="opacity:0.93" fill="#ab00ff" d="M 212.5,227.5 C 224.5,227.5 236.5,227.5 248.5,227.5C 248.5,232.833 248.5,238.167 248.5,243.5C 246.901,243.232 245.568,243.566 244.5,244.5C 236.833,244.5 229.167,244.5 221.5,244.5C 221.5,239.167 221.5,233.833 221.5,228.5C 218.287,228.81 215.287,228.477 212.5,227.5 Z"/></g>
<g><path style="opacity:0.938" fill="#b100ff" d="M 248.5,227.5 C 259.167,227.5 269.833,227.5 280.5,227.5C 280.5,232.833 280.5,238.167 280.5,243.5C 282.415,243.216 284.081,243.549 285.5,244.5C 271.833,244.5 258.167,244.5 244.5,244.5C 245.568,243.566 246.901,243.232 248.5,243.5C 248.5,238.167 248.5,232.833 248.5,227.5 Z"/></g>
<g><path style="opacity:0.958" fill="#b800ff" d="M 280.5,227.5 C 286.5,227.5 292.5,227.5 298.5,227.5C 301.625,228.479 304.958,228.813 308.5,228.5C 308.5,233.833 308.5,239.167 308.5,244.5C 300.833,244.5 293.167,244.5 285.5,244.5C 284.081,243.549 282.415,243.216 280.5,243.5C 280.5,238.167 280.5,232.833 280.5,227.5 Z"/></g>
<g><path style="opacity:0.942" fill="#9f00ff" d="M 193.5,266.5 C 193.5,271.833 193.5,277.167 193.5,282.5C 195.415,282.216 197.081,282.549 198.5,283.5C 194.818,283.335 191.152,283.501 187.5,284C 182.723,287.573 182.223,291.74 186,296.5C 189.388,301.048 192.555,305.714 195.5,310.5C 193.529,319.105 192.862,328.105 193.5,337.5C 185.442,326.407 177.609,315.074 170,303.5C 164.305,291.945 165.805,281.445 174.5,272C 180.086,267.639 186.419,265.805 193.5,266.5 Z"/></g>
<g><path style="opacity:0.962" fill="#a500ff" d="M 193.5,266.5 C 202.833,266.5 212.167,266.5 221.5,266.5C 221.5,271.833 221.5,277.167 221.5,282.5C 218.287,282.19 215.287,282.523 212.5,283.5C 207.833,283.5 203.167,283.5 198.5,283.5C 197.081,282.549 195.415,282.216 193.5,282.5C 193.5,277.167 193.5,271.833 193.5,266.5 Z"/></g>
<g><path style="opacity:0.93" fill="#ab00ff" d="M 221.5,266.5 C 229.167,266.5 236.833,266.5 244.5,266.5C 245.568,267.434 246.901,267.768 248.5,267.5C 248.5,272.833 248.5,278.167 248.5,283.5C 236.5,283.5 224.5,283.5 212.5,283.5C 215.287,282.523 218.287,282.19 221.5,282.5C 221.5,277.167 221.5,271.833 221.5,266.5 Z"/></g>
<g><path style="opacity:0.938" fill="#b100ff" d="M 244.5,266.5 C 258.167,266.5 271.833,266.5 285.5,266.5C 284.081,267.451 282.415,267.784 280.5,267.5C 280.5,272.833 280.5,278.167 280.5,283.5C 269.833,283.5 259.167,283.5 248.5,283.5C 248.5,278.167 248.5,272.833 248.5,267.5C 246.901,267.768 245.568,267.434 244.5,266.5 Z"/></g>
<g><path style="opacity:0.958" fill="#b800ff" d="M 285.5,266.5 C 293.167,266.5 300.833,266.5 308.5,266.5C 308.5,271.833 308.5,277.167 308.5,282.5C 304.958,282.187 301.625,282.521 298.5,283.5C 292.5,283.5 286.5,283.5 280.5,283.5C 280.5,278.167 280.5,272.833 280.5,267.5C 282.415,267.784 284.081,267.451 285.5,266.5 Z"/></g>
<g><path style="opacity:0.938" fill="#bf00ff" d="M 308.5,266.5 C 321.792,263.541 332.626,267.207 341,277.5C 345.664,286.179 345.664,294.846 341,303.5C 330.304,319.678 319.47,335.678 308.5,351.5C 308.5,341.5 308.5,331.5 308.5,321.5C 313.778,313.049 319.278,304.716 325,296.5C 328.624,291.831 328.124,287.664 323.5,284C 315.173,283.5 306.84,283.334 298.5,283.5C 301.625,282.521 304.958,282.187 308.5,282.5C 308.5,277.167 308.5,271.833 308.5,266.5 Z"/></g>
<g><path style="opacity:0.916" fill="#b000ff" d="M 237.5,304.5 C 249.505,304.333 261.505,304.5 273.5,305C 278.426,307.353 280.26,311.186 279,316.5C 278.167,318.667 276.667,320.167 274.5,321C 261.833,321.667 249.167,321.667 236.5,321C 231.465,317.987 230.298,313.82 233,308.5C 234.397,306.93 235.897,305.596 237.5,304.5 Z"/></g>
<g><path style="opacity:0.962" fill="#a500ff" d="M 195.5,310.5 C 204.587,323.581 213.253,336.915 221.5,350.5C 221.5,360.167 221.5,369.833 221.5,379.5C 211.673,365.852 202.34,351.852 193.5,337.5C 192.862,328.105 193.529,319.105 195.5,310.5 Z"/></g>
<g><path style="opacity:0.942" fill="#b800ff" d="M 308.5,321.5 C 308.5,331.5 308.5,341.5 308.5,351.5C 299.749,365.338 290.749,379.005 281.5,392.5C 280.833,383.5 280.167,374.5 279.5,365.5C 288.673,350.482 298.339,335.816 308.5,321.5 Z"/></g>
<g><path style="opacity:0.932" fill="#ab00ff" d="M 221.5,350.5 C 231.068,363.956 240.401,377.623 249.5,391.5C 248.51,397.645 248.177,403.978 248.5,410.5C 243.503,409.245 239.337,406.578 236,402.5C 230.916,394.932 226.083,387.265 221.5,379.5C 221.5,369.833 221.5,360.167 221.5,350.5 Z"/></g>
<g><path style="opacity:0.96" fill="#b200ff" d="M 279.5,365.5 C 280.167,374.5 280.833,383.5 281.5,392.5C 277.633,401.2 271.3,407.367 262.5,411C 257.648,411.815 252.981,411.648 248.5,410.5C 248.177,403.978 248.51,397.645 249.5,391.5C 252.665,394.803 256.332,395.303 260.5,393C 266.486,383.506 272.819,374.339 279.5,365.5 Z"/></g>
<g><path style="opacity:1" fill="#9600ff" d="M 106.5,431.5 C 126.5,431.5 146.5,431.5 166.5,431.5C 166.5,436.833 166.5,442.167 166.5,447.5C 146.5,447.5 126.5,447.5 106.5,447.5C 106.5,442.167 106.5,436.833 106.5,431.5 Z"/></g>
<g><path style="opacity:1" fill="#a300ff" d="M 166.5,431.5 C 184.833,431.5 203.167,431.5 221.5,431.5C 221.5,436.833 221.5,442.167 221.5,447.5C 203.167,447.5 184.833,447.5 166.5,447.5C 166.5,442.167 166.5,436.833 166.5,431.5 Z"/></g>
<g><path style="opacity:1" fill="#af00ff" d="M 221.5,431.5 C 241.167,431.5 260.833,431.5 280.5,431.5C 280.5,436.833 280.5,442.167 280.5,447.5C 260.833,447.5 241.167,447.5 221.5,447.5C 221.5,442.167 221.5,436.833 221.5,431.5 Z"/></g>
<g><path style="opacity:1" fill="#bc00ff" d="M 280.5,431.5 C 298.833,431.5 317.167,431.5 335.5,431.5C 335.5,436.833 335.5,442.167 335.5,447.5C 317.167,447.5 298.833,447.5 280.5,447.5C 280.5,442.167 280.5,436.833 280.5,431.5 Z"/></g>
<g><path style="opacity:1" fill="#c800ff" d="M 335.5,431.5 C 355.167,431.5 374.833,431.5 394.5,431.5C 394.5,436.833 394.5,442.167 394.5,447.5C 374.833,447.5 355.167,447.5 335.5,447.5C 335.5,442.167 335.5,436.833 335.5,431.5 Z"/></g>
<g><path style="opacity:0.97" fill="#8800ff" d="M 52.5,453.5 C 55.8901,457.714 60.2234,460.547 65.5,462C 79.1213,463.385 92.788,463.885 106.5,463.5C 106.5,468.833 106.5,474.167 106.5,479.5C 91.8295,479.667 77.1629,479.5 62.5,479C 58.5263,478.006 54.8597,476.506 51.5,474.5C 52.4912,467.687 52.8245,460.687 52.5,453.5 Z"/></g>
<g><path style="opacity:1" fill="#9600ff" d="M 106.5,463.5 C 126.5,463.5 146.5,463.5 166.5,463.5C 166.5,468.833 166.5,474.167 166.5,479.5C 146.5,479.5 126.5,479.5 106.5,479.5C 106.5,474.167 106.5,468.833 106.5,463.5 Z"/></g>
<g><path style="opacity:1" fill="#a300ff" d="M 166.5,463.5 C 184.833,463.5 203.167,463.5 221.5,463.5C 221.5,468.833 221.5,474.167 221.5,479.5C 203.167,479.5 184.833,479.5 166.5,479.5C 166.5,474.167 166.5,468.833 166.5,463.5 Z"/></g>
<g><path style="opacity:1" fill="#af00ff" d="M 221.5,463.5 C 241.167,463.5 260.833,463.5 280.5,463.5C 280.5,468.833 280.5,474.167 280.5,479.5C 260.833,479.5 241.167,479.5 221.5,479.5C 221.5,474.167 221.5,468.833 221.5,463.5 Z"/></g>
<g><path style="opacity:1" fill="#bc00ff" d="M 280.5,463.5 C 298.833,463.5 317.167,463.5 335.5,463.5C 335.5,468.833 335.5,474.167 335.5,479.5C 317.167,479.5 298.833,479.5 280.5,479.5C 280.5,474.167 280.5,468.833 280.5,463.5 Z"/></g>
<g><path style="opacity:1" fill="#c800ff" d="M 335.5,463.5 C 355.167,463.5 374.833,463.5 394.5,463.5C 394.5,468.833 394.5,474.167 394.5,479.5C 374.833,479.5 355.167,479.5 335.5,479.5C 335.5,474.167 335.5,468.833 335.5,463.5 Z"/></g>
<g><path style="opacity:1" fill="#d300ff" d="M 450.5,460.5 C 449.545,466.409 449.211,472.409 449.5,478.5C 431.243,479.486 412.91,479.82 394.5,479.5C 394.5,474.167 394.5,468.833 394.5,463.5C 409.504,463.667 424.504,463.5 439.5,463C 443.285,462.593 446.952,461.759 450.5,460.5 Z"/></g>
</svg>
